<svg id="Capa_1" data-name="Capa 1" xmlns="http://www.w3.org/2000/svg" xmlns:xlink="http://www.w3.org/1999/xlink" viewBox="0 0 93.33 73.14"><defs><style>.cls-1{fill:#a5b7f1;}.cls-2{clip-path:url(#clip-path);}.cls-3{clip-path:url(#clip-path-2);}.cls-4{clip-path:url(#clip-path-3);}.cls-5{clip-path:url(#clip-path-4);}.cls-6{clip-path:url(#clip-path-5);}.cls-7{clip-path:url(#clip-path-6);}.cls-8{clip-path:url(#clip-path-7);}.cls-9{clip-path:url(#clip-path-8);}.cls-10{clip-path:url(#clip-path-9);}.cls-11{clip-path:url(#clip-path-10);}.cls-12{clip-path:url(#clip-path-11);}.cls-13{clip-path:url(#clip-path-12);}.cls-14{clip-path:url(#clip-path-13);}.cls-15{clip-path:url(#clip-path-14);}</style><clipPath id="clip-path"><path class="cls-1" d="M37.62,67.74s-9.22,6.8-17.71.87C19.91,68.61,28.36,61,37.62,67.74Z"/></clipPath><clipPath id="clip-path-2"><path class="cls-1" d="M28,60.94s-8.52,5.18-15.42-.63C12.54,60.31,20.46,54.38,28,60.94Z"/></clipPath><clipPath id="clip-path-3"><path class="cls-1" d="M19.59,50.64s-8.69,4.84-15-1.42C4.55,49.22,12.7,43.59,19.59,50.64Z"/></clipPath><clipPath id="clip-path-4"><path class="cls-1" d="M18.18,17.41s-3.46-4.5-.15-9A6.89,6.89,0,0,1,18.18,17.41Z"/></clipPath><clipPath id="clip-path-5"><path class="cls-1" d="M20.62,50.31S17.29,42.23,24,36.87A10.58,10.58,0,0,1,20.62,50.31Z"/></clipPath><clipPath id="clip-path-6"><path class="cls-1" d="M16.11,29.93s.6-7.87,8.1-9.75A10,10,0,0,1,16.11,29.93Z"/></clipPath><clipPath id="clip-path-7"><path class="cls-1" d="M21.47,11.65s.76-7,7.4-8.54A9,9,0,0,1,21.47,11.65Z"/></clipPath><clipPath id="clip-path-8"><path class="cls-1" d="M55.71,67.39s9.22,6.8,17.71.87C73.43,68.25,65,60.66,55.71,67.39Z"/></clipPath><clipPath id="clip-path-9"><path class="cls-1" d="M65.37,60.58s8.52,5.18,15.42-.63C80.79,60,72.87,54,65.37,60.58Z"/></clipPath><clipPath id="clip-path-10"><path class="cls-1" d="M73.74,50.28s8.69,4.84,15-1.42C88.79,48.86,80.63,43.23,73.74,50.28Z"/></clipPath><clipPath id="clip-path-11"><path class="cls-1" d="M75.15,17.05s3.46-4.5.15-9A6.89,6.89,0,0,0,75.15,17.05Z"/></clipPath><clipPath id="clip-path-12"><path class="cls-1" d="M72.71,50S76,41.87,69.3,36.51A10.58,10.58,0,0,0,72.71,50Z"/></clipPath><clipPath id="clip-path-13"><path class="cls-1" d="M77.23,29.57s-.6-7.87-8.1-9.75A10,10,0,0,0,77.23,29.57Z"/></clipPath><clipPath id="clip-path-14"><path class="cls-1" d="M71.86,11.29s-.76-7-7.4-8.54A9,9,0,0,0,71.86,11.29Z"/></clipPath></defs><title>ps_award</title><line class="cls-1" x1="16.62" y1="64.66" x2="18.72" y2="69.97"/><line class="cls-1" x1="14.51" y1="59.35" x2="16.62" y2="64.66"/><line class="cls-1" x1="10.29" y1="48.72" x2="12.4" y2="54.03"/><line class="cls-1" x1="8.19" y1="43.41" x2="10.29" y2="48.72"/><line class="cls-1" x1="6.08" y1="38.09" x2="8.19" y2="43.41"/><path class="cls-1" d="M42.86,69.89A38.61,38.61,0,0,1,17.75,47.21q-.44-1.1-.8-2.21c-2.14-.15-8.58-1.12-10.48-7.47,0,0,6.11-.7,9.53,4a37.54,37.54,0,0,1-.9-7.9,11.94,11.94,0,0,1-.4,2.59S7,32.16,9,24.27c0,0,5.91,2.42,6.13,8.6a38.62,38.62,0,0,1,1-8.19c-1.59-1.09-5.27-4.25-4-9.38,0,0,4.2,1.72,4.93,6q.46-1.43,1-2.83l-.36,0a11.62,11.62,0,0,1,2.15-3.82q.86-1.6,1.86-3.14Q20.8,13,20,14.44a9,9,0,0,1,6.39-3.05,9,9,0,0,1-8.19,7.09q-.66,1.74-1.15,3.54a9.24,9.24,0,0,1-.32,3.09l-.36-.21a37.28,37.28,0,0,0-.33,12.35,10.61,10.61,0,0,1,6.55-8A10.13,10.13,0,0,1,16.59,40a36.84,36.84,0,0,0,9.29,17.46A12,12,0,0,1,27.27,45.1s6.39,6.62.88,14.59a38.46,38.46,0,0,0,8.46,5.68c-2.41-2.48-6.08-7.69-3.41-14.57,0,0,9.21,5.23,5.47,15.52a40.17,40.17,0,0,0,5.2,1.81"/><path class="cls-1" d="M37.62,67.74s-9.22,6.8-17.71.87C19.91,68.61,28.36,61,37.62,67.74Z"/><g class="cls-2"><rect class="cls-1" x="23.02" y="72.55" width="16.21" height="0.59" transform="translate(-29.48 21.83) rotate(-26.78)"/><rect class="cls-1" x="22.75" y="71.99" width="16.21" height="0.62" transform="translate(-29.27 21.65) rotate(-26.78)"/><rect class="cls-1" x="22.46" y="71.44" width="16.21" height="0.62" transform="translate(-29.05 21.46) rotate(-26.78)"/><rect class="cls-1" x="22.18" y="70.88" width="16.21" height="0.62" transform="translate(-28.83 21.28) rotate(-26.78)"/><rect class="cls-1" x="21.9" y="70.32" width="16.21" height="0.62" transform="translate(-28.6 21.09) rotate(-26.78)"/><rect class="cls-1" x="21.62" y="69.76" width="16.21" height="0.62" transform="translate(-28.38 20.91) rotate(-26.78)"/><rect class="cls-1" x="21.34" y="69.21" width="16.21" height="0.62" transform="translate(-28.16 20.72) rotate(-26.78)"/><rect class="cls-1" x="21.06" y="68.65" width="16.21" height="0.62" transform="translate(-27.94 20.53) rotate(-26.78)"/><rect class="cls-1" x="20.78" y="68.09" width="16.21" height="0.62" transform="translate(-27.72 20.35) rotate(-26.78)"/><rect class="cls-1" x="20.49" y="67.53" width="16.21" height="0.62" transform="translate(-27.5 20.16) rotate(-26.78)"/><rect class="cls-1" x="20.21" y="66.98" width="16.21" height="0.62" transform="translate(-27.28 19.97) rotate(-26.78)"/><rect class="cls-1" x="19.93" y="66.42" width="16.21" height="0.62" transform="translate(-27.06 19.79) rotate(-26.78)"/><rect class="cls-1" x="19.65" y="65.86" width="16.21" height="0.62" transform="translate(-26.84 19.6) rotate(-26.78)"/><rect class="cls-1" x="19.37" y="65.3" width="16.21" height="0.62" transform="translate(-26.62 19.41) rotate(-26.78)"/><rect class="cls-1" x="19.09" y="64.75" width="16.21" height="0.62" transform="translate(-26.39 19.23) rotate(-26.78)"/><rect class="cls-1" x="18.81" y="64.19" width="16.21" height="0.62" transform="translate(-26.17 19.04) rotate(-26.78)"/><rect class="cls-1" x="18.52" y="63.63" width="16.21" height="0.62" transform="translate(-25.95 18.85) rotate(-26.78)"/><rect class="cls-1" x="18.24" y="63.07" width="16.21" height="0.62" transform="translate(-25.73 18.67) rotate(-26.78)"/><rect class="cls-1" x="17.96" y="62.51" width="16.21" height="0.62" transform="translate(-25.51 18.48) rotate(-26.78)"/><rect class="cls-1" x="17.76" y="62.29" width="16.21" height="0.27" transform="translate(-25.35 18.35) rotate(-26.78)"/></g><path class="cls-1" d="M28,60.94s-8.52,5.18-15.42-.63C12.54,60.31,20.46,54.38,28,60.94Z"/><g class="cls-3"><rect class="cls-1" x="14.88" y="64.6" width="14.1" height="0.51" transform="translate(-22.37 12.65) rotate(-21.64)"/><rect class="cls-1" x="14.68" y="64.09" width="14.1" height="0.54" transform="translate(-22.2 12.55) rotate(-21.64)"/><rect class="cls-1" x="14.48" y="63.59" width="14.1" height="0.54" transform="translate(-22.03 12.44) rotate(-21.64)"/><rect class="cls-1" x="14.28" y="63.08" width="14.1" height="0.54" transform="translate(-21.86 12.33) rotate(-21.64)"/><rect class="cls-1" x="14.08" y="62.58" width="14.1" height="0.54" transform="translate(-21.68 12.22) rotate(-21.64)"/><rect class="cls-1" x="13.88" y="62.07" width="14.1" height="0.54" transform="translate(-21.51 12.11) rotate(-21.64)"/><rect class="cls-1" x="13.68" y="61.56" width="14.1" height="0.54" transform="translate(-21.34 12) rotate(-21.64)"/><rect class="cls-1" x="13.48" y="61.06" width="14.1" height="0.54" transform="translate(-21.17 11.89) rotate(-21.64)"/><rect class="cls-1" x="13.28" y="60.55" width="14.1" height="0.54" transform="translate(-20.99 11.78) rotate(-21.64)"/><rect class="cls-1" x="13.08" y="60.05" width="14.1" height="0.54" transform="translate(-20.82 11.67) rotate(-21.64)"/><rect class="cls-1" x="12.88" y="59.54" width="14.1" height="0.54" transform="translate(-20.65 11.56) rotate(-21.64)"/><rect class="cls-1" x="12.68" y="59.04" width="14.1" height="0.54" transform="translate(-20.48 11.45) rotate(-21.64)"/><rect class="cls-1" x="12.48" y="58.53" width="14.1" height="0.54" transform="translate(-20.31 11.34) rotate(-21.64)"/><rect class="cls-1" x="12.28" y="58.03" width="14.1" height="0.54" transform="translate(-20.13 11.23) rotate(-21.64)"/><rect class="cls-1" x="12.08" y="57.52" width="14.1" height="0.54" transform="translate(-19.96 11.12) rotate(-21.64)"/><rect class="cls-1" x="11.88" y="57.02" width="14.1" height="0.54" transform="translate(-19.79 11.02) rotate(-21.64)"/><rect class="cls-1" x="11.68" y="56.51" width="14.1" height="0.54" transform="translate(-19.62 10.91) rotate(-21.64)"/><rect class="cls-1" x="11.48" y="56.01" width="14.1" height="0.54" transform="translate(-19.45 10.8) rotate(-21.64)"/><rect class="cls-1" x="11.28" y="55.5" width="14.1" height="0.54" transform="translate(-19.27 10.69) rotate(-21.64)"/><rect class="cls-1" x="11.13" y="55.3" width="14.1" height="0.24" transform="translate(-19.15 10.61) rotate(-21.64)"/></g><path class="cls-1" d="M19.59,50.64s-8.69,4.84-15-1.42C4.55,49.22,12.7,43.59,19.59,50.64Z"/><g class="cls-4"><rect class="cls-1" x="11.03" y="53.95" width="9.89" height="0.12" transform="translate(-32.89 26) rotate(-43.7)"/><rect class="cls-1" x="10.67" y="53.18" width="9.89" height="0.92" transform="translate(-32.73 25.65) rotate(-43.7)"/><rect class="cls-1" x="10.03" y="52.52" width="9.89" height="0.92" transform="translate(-32.45 25.03) rotate(-43.7)"/><rect class="cls-1" x="9.4" y="51.85" width="9.89" height="0.92" transform="translate(-32.17 24.41) rotate(-43.7)"/><rect class="cls-1" x="8.77" y="51.19" width="9.89" height="0.92" transform="translate(-31.89 23.79) rotate(-43.7)"/><rect class="cls-1" x="8.13" y="50.53" width="9.89" height="0.92" transform="translate(-31.6 23.16) rotate(-43.7)"/><rect class="cls-1" x="7.5" y="49.86" width="9.89" height="0.92" transform="translate(-31.32 22.54) rotate(-43.7)"/><rect class="cls-1" x="6.86" y="49.2" width="9.89" height="0.92" transform="translate(-31.04 21.92) rotate(-43.7)"/><rect class="cls-1" x="6.23" y="48.54" width="9.89" height="0.92" transform="translate(-30.76 21.3) rotate(-43.7)"/><rect class="cls-1" x="5.6" y="47.87" width="9.89" height="0.92" transform="translate(-30.47 20.68) rotate(-43.7)"/><rect class="cls-1" x="4.96" y="47.21" width="9.89" height="0.92" transform="translate(-30.19 20.06) rotate(-43.7)"/><rect class="cls-1" x="4.33" y="46.55" width="9.89" height="0.92" transform="translate(-29.91 19.43) rotate(-43.7)"/><rect class="cls-1" x="3.7" y="45.88" width="9.89" height="0.92" transform="translate(-29.63 18.81) rotate(-43.7)"/><rect class="cls-1" x="3.28" y="45.76" width="9.89" height="0.29" transform="translate(-29.44 18.4) rotate(-43.7)"/></g><path class="cls-1" d="M18.18,17.41s-3.46-4.5-.15-9A6.89,6.89,0,0,1,18.18,17.41Z"/><g class="cls-5"><rect class="cls-1" x="17.49" y="15.45" width="6" height="0.08" transform="translate(-5.18 16.32) rotate(-38.95)"/><rect class="cls-1" x="17.29" y="14.96" width="6" height="0.57" transform="translate(-5.07 16.14) rotate(-38.95)"/><rect class="cls-1" x="16.93" y="14.51" width="6" height="0.57" transform="translate(-4.87 15.82) rotate(-38.95)"/><rect class="cls-1" x="16.57" y="14.07" width="6" height="0.57" transform="translate(-4.67 15.49) rotate(-38.95)"/><rect class="cls-1" x="16.21" y="13.63" width="6" height="0.57" transform="translate(-4.47 15.17) rotate(-38.95)"/><rect class="cls-1" x="15.85" y="13.18" width="6" height="0.57" transform="translate(-4.27 14.84) rotate(-38.95)"/><rect class="cls-1" x="15.49" y="12.74" width="6" height="0.57" transform="translate(-4.08 14.52) rotate(-38.95)"/><rect class="cls-1" x="15.13" y="12.29" width="6" height="0.57" transform="translate(-3.88 14.2) rotate(-38.95)"/><rect class="cls-1" x="14.78" y="11.85" width="6" height="0.57" transform="translate(-3.68 13.87) rotate(-38.95)"/><rect class="cls-1" x="14.42" y="11.41" width="6" height="0.57" transform="translate(-3.48 13.55) rotate(-38.95)"/><rect class="cls-1" x="14.06" y="10.96" width="6" height="0.57" transform="translate(-3.28 13.22) rotate(-38.95)"/><rect class="cls-1" x="13.7" y="10.52" width="6" height="0.57" transform="translate(-3.08 12.9) rotate(-38.95)"/><rect class="cls-1" x="13.34" y="10.08" width="6" height="0.57" transform="translate(-2.88 12.58) rotate(-38.95)"/><rect class="cls-1" x="13.11" y="9.98" width="6" height="0.18" transform="translate(-2.75 12.36) rotate(-38.95)"/></g><path class="cls-1" d="M20.62,50.31S17.29,42.23,24,36.87A10.58,10.58,0,0,1,20.62,50.31Z"/><g class="cls-6"><rect class="cls-1" x="20.16" y="48.53" width="9.28" height="0.12" transform="translate(-16.17 12.57) rotate(-21.64)"/><rect class="cls-1" x="19.98" y="47.66" width="9.28" height="0.9" transform="translate(-16.01 12.47) rotate(-21.64)"/><rect class="cls-1" x="19.64" y="46.82" width="9.28" height="0.9" transform="translate(-15.72 12.28) rotate(-21.64)"/><rect class="cls-1" x="19.31" y="45.99" width="9.28" height="0.9" transform="translate(-15.43 12.1) rotate(-21.64)"/><rect class="cls-1" x="18.98" y="45.15" width="9.28" height="0.9" transform="translate(-15.15 11.92) rotate(-21.64)"/><rect class="cls-1" x="18.65" y="44.31" width="9.28" height="0.9" transform="translate(-14.86 11.74) rotate(-21.64)"/><rect class="cls-1" x="18.31" y="43.47" width="9.28" height="0.9" transform="translate(-14.58 11.56) rotate(-21.64)"/><rect class="cls-1" x="17.98" y="42.63" width="9.28" height="0.9" transform="translate(-14.29 11.37) rotate(-21.64)"/><rect class="cls-1" x="17.65" y="41.79" width="9.28" height="0.9" transform="translate(-14 11.19) rotate(-21.64)"/><rect class="cls-1" x="17.31" y="40.95" width="9.28" height="0.9" transform="translate(-13.72 11.01) rotate(-21.64)"/><rect class="cls-1" x="16.98" y="40.11" width="9.28" height="0.9" transform="translate(-13.43 10.83) rotate(-21.64)"/><rect class="cls-1" x="16.65" y="39.28" width="9.28" height="0.9" transform="translate(-13.15 10.65) rotate(-21.64)"/><rect class="cls-1" x="16.32" y="38.44" width="9.28" height="0.9" transform="translate(-12.86 10.47) rotate(-21.64)"/><rect class="cls-1" x="16.1" y="38.19" width="9.28" height="0.29" transform="translate(-12.67 10.35) rotate(-21.64)"/></g><path class="cls-1" d="M16.11,29.93s.6-7.87,8.1-9.75A10,10,0,0,1,16.11,29.93Z"/><g class="cls-7"><rect class="cls-1" x="16.15" y="28.89" width="11.13" height="0.18" transform="translate(-9.15 10.05) rotate(-21.64)"/><rect class="cls-1" x="16.02" y="28.41" width="11.13" height="0.51" transform="translate(-9.05 9.98) rotate(-21.64)"/><rect class="cls-1" x="15.84" y="27.94" width="11.13" height="0.51" transform="translate(-8.89 9.88) rotate(-21.64)"/><rect class="cls-1" x="15.65" y="27.46" width="11.13" height="0.51" transform="translate(-8.72 9.77) rotate(-21.64)"/><rect class="cls-1" x="15.46" y="26.99" width="11.13" height="0.51" transform="translate(-8.56 9.67) rotate(-21.64)"/><rect class="cls-1" x="15.27" y="26.52" width="11.13" height="0.51" transform="translate(-8.4 9.57) rotate(-21.64)"/><rect class="cls-1" x="15.09" y="26.05" width="11.13" height="0.51" transform="translate(-8.24 9.47) rotate(-21.64)"/><rect class="cls-1" x="14.9" y="25.58" width="11.13" height="0.51" transform="translate(-8.08 9.36) rotate(-21.64)"/><rect class="cls-1" x="14.71" y="25.1" width="11.13" height="0.51" transform="translate(-7.92 9.26) rotate(-21.64)"/><rect class="cls-1" x="14.53" y="24.63" width="11.13" height="0.51" transform="translate(-7.76 9.16) rotate(-21.64)"/><rect class="cls-1" x="14.34" y="24.16" width="11.13" height="0.51" transform="translate(-7.6 9.06) rotate(-21.64)"/><rect class="cls-1" x="14.15" y="23.69" width="11.13" height="0.51" transform="translate(-7.44 8.96) rotate(-21.64)"/><rect class="cls-1" x="13.96" y="23.22" width="11.13" height="0.51" transform="translate(-7.28 8.85) rotate(-21.64)"/><rect class="cls-1" x="13.78" y="22.74" width="11.13" height="0.51" transform="translate(-7.12 8.75) rotate(-21.64)"/><rect class="cls-1" x="13.59" y="22.27" width="11.13" height="0.51" transform="translate(-6.96 8.65) rotate(-21.64)"/><rect class="cls-1" x="13.4" y="21.8" width="11.13" height="0.51" transform="translate(-6.79 8.55) rotate(-21.64)"/><rect class="cls-1" x="13.22" y="21.33" width="11.13" height="0.51" transform="translate(-6.63 8.44) rotate(-21.64)"/><rect class="cls-1" x="13.11" y="21.28" width="11.13" height="0.07" transform="translate(-6.54 8.39) rotate(-21.64)"/></g><path class="cls-1" d="M21.47,11.65s.76-7,7.4-8.54A9,9,0,0,1,21.47,11.65Z"/><g class="cls-8"><rect class="cls-1" x="21.96" y="10.86" width="10.78" height="0.13" transform="matrix(0.85, -0.52, 0.52, 0.85, -1.67, 15.94)"/><rect class="cls-1" x="21.83" y="10.53" width="10.78" height="0.36" transform="matrix(0.85, -0.52, 0.52, 0.85, -1.58, 15.84)"/><rect class="cls-1" x="21.64" y="10.22" width="10.78" height="0.36" transform="translate(-1.44 15.7) rotate(-31.59)"/><rect class="cls-1" x="21.45" y="9.91" width="10.78" height="0.36" transform="matrix(0.85, -0.52, 0.52, 0.85, -1.31, 15.55)"/><rect class="cls-1" x="21.26" y="9.6" width="10.78" height="0.36" transform="matrix(0.85, -0.52, 0.52, 0.85, -1.18, 15.41)"/><rect class="cls-1" x="21.07" y="9.29" width="10.78" height="0.36" transform="matrix(0.85, -0.52, 0.52, 0.85, -1.04, 15.26)"/><rect class="cls-1" x="20.88" y="8.98" width="10.78" height="0.36" transform="translate(-0.91 15.12) rotate(-31.59)"/><rect class="cls-1" x="20.69" y="8.67" width="10.78" height="0.36" transform="translate(-0.77 14.97) rotate(-31.59)"/><rect class="cls-1" x="20.5" y="8.36" width="10.78" height="0.36" transform="translate(-0.64 14.82) rotate(-31.59)"/><rect class="cls-1" x="20.31" y="8.05" width="10.78" height="0.36" transform="matrix(0.85, -0.52, 0.52, 0.85, -0.51, 14.68)"/><rect class="cls-1" x="20.12" y="7.74" width="10.78" height="0.36" transform="translate(-0.37 14.53) rotate(-31.59)"/><rect class="cls-1" x="19.93" y="7.43" width="10.78" height="0.36" transform="translate(-0.24 14.39) rotate(-31.59)"/><rect class="cls-1" x="19.73" y="7.12" width="10.78" height="0.36" transform="matrix(0.85, -0.52, 0.52, 0.85, -0.1, 14.24)"/><rect class="cls-1" x="19.54" y="6.82" width="10.78" height="0.36" transform="translate(0.03 14.1) rotate(-31.59)"/><rect class="cls-1" x="19.35" y="6.51" width="10.78" height="0.36" transform="matrix(0.85, -0.52, 0.52, 0.85, 0.16, 13.95)"/><rect class="cls-1" x="19.16" y="6.2" width="10.78" height="0.36" transform="matrix(0.85, -0.52, 0.52, 0.85, 0.3, 13.81)"/><rect class="cls-1" x="18.97" y="5.89" width="10.78" height="0.36" transform="translate(0.43 13.66) rotate(-31.59)"/><rect class="cls-1" x="18.78" y="5.58" width="10.78" height="0.36" transform="matrix(0.85, -0.52, 0.52, 0.85, 0.56, 13.51)"/><rect class="cls-1" x="18.59" y="5.27" width="10.78" height="0.36" transform="translate(0.7 13.37) rotate(-31.59)"/><rect class="cls-1" x="18.4" y="4.96" width="10.78" height="0.36" transform="matrix(0.85, -0.52, 0.52, 0.85, 0.83, 13.22)"/><rect class="cls-1" x="18.21" y="4.65" width="10.78" height="0.36" transform="matrix(0.85, -0.52, 0.52, 0.85, 0.97, 13.08)"/><rect class="cls-1" x="18.02" y="4.34" width="10.78" height="0.36" transform="translate(1.1 12.93) rotate(-31.59)"/><rect class="cls-1" x="17.84" y="4.06" width="10.78" height="0.33" transform="translate(1.23 12.79) rotate(-31.59)"/></g><line class="cls-1" x1="76.72" y1="64.3" x2="74.61" y2="69.62"/><line class="cls-1" x1="83.04" y1="48.36" x2="80.93" y2="53.68"/><path class="cls-1" d="M50.47,69.53A38.61,38.61,0,0,0,75.58,46.86q.44-1.1.8-2.21c2.14-.15,8.58-1.12,10.48-7.47,0,0-6.11-.7-9.53,4a37.54,37.54,0,0,0,.9-7.9,11.94,11.94,0,0,0,.4,2.59s7.67-4.07,5.73-12c0,0-5.91,2.42-6.13,8.6a38.62,38.62,0,0,0-1-8.19c1.59-1.09,5.27-4.25,4-9.38,0,0-4.2,1.72-4.93,6q-.46-1.43-1-2.83l.36,0a11.62,11.62,0,0,0-2.15-3.82q-.86-1.6-1.86-3.14.88,1.41,1.63,2.88A9,9,0,0,0,66.9,11a9,9,0,0,0,8.19,7.09q.66,1.74,1.15,3.54a9.24,9.24,0,0,0,.32,3.09l.36-.21a37.28,37.28,0,0,1,.33,12.35,10.61,10.61,0,0,0-6.55-8,10.13,10.13,0,0,0,6.05,10.77,36.84,36.84,0,0,1-9.29,17.46,12,12,0,0,0-1.39-12.38s-6.39,6.62-.88,14.59A38.46,38.46,0,0,1,56.72,65c2.41-2.48,6.08-7.69,3.41-14.57,0,0-9.21,5.23-5.47,15.52a40.17,40.17,0,0,1-5.2,1.81"/><path class="cls-1" d="M55.71,67.39s9.22,6.8,17.71.87C73.43,68.25,65,60.66,55.71,67.39Z"/><g class="cls-9"><rect class="cls-1" x="61.92" y="64.39" width="0.59" height="16.21" transform="translate(-30.53 95.37) rotate(-63.22)"/><rect class="cls-1" x="62.17" y="63.85" width="0.62" height="16.21" transform="translate(-29.9 95.32) rotate(-63.22)"/><rect class="cls-1" x="62.45" y="63.29" width="0.62" height="16.21" transform="translate(-29.25 95.26) rotate(-63.22)"/><rect class="cls-1" x="62.74" y="62.73" width="0.62" height="16.21" transform="translate(-28.59 95.21) rotate(-63.22)"/><rect class="cls-1" x="63.02" y="62.17" width="0.62" height="16.21" transform="translate(-27.94 95.15) rotate(-63.22)"/><rect class="cls-1" x="63.3" y="61.62" width="0.62" height="16.21" transform="translate(-27.29 95.1) rotate(-63.22)"/><rect class="cls-1" x="63.58" y="61.06" width="0.62" height="16.21" transform="translate(-26.64 95.04) rotate(-63.22)"/><rect class="cls-1" x="63.86" y="60.5" width="0.62" height="16.21" transform="translate(-25.99 94.99) rotate(-63.22)"/><rect class="cls-1" x="64.14" y="59.94" width="0.62" height="16.21" transform="translate(-25.33 94.93) rotate(-63.22)"/><rect class="cls-1" x="64.42" y="59.39" width="0.62" height="16.21" transform="translate(-24.68 94.88) rotate(-63.22)"/><rect class="cls-1" x="64.7" y="58.83" width="0.62" height="16.21" transform="translate(-24.03 94.82) rotate(-63.22)"/><rect class="cls-1" x="64.99" y="58.27" width="0.62" height="16.21" transform="translate(-23.38 94.77) rotate(-63.22)"/><rect class="cls-1" x="65.27" y="57.71" width="0.62" height="16.21" transform="translate(-22.72 94.71) rotate(-63.22)"/><rect class="cls-1" x="65.83" y="56.6" width="0.62" height="16.21" transform="translate(-21.42 94.6) rotate(-63.22)"/><rect class="cls-1" x="66.11" y="56.04" width="0.62" height="16.21" transform="translate(-20.77 94.55) rotate(-63.22)"/><rect class="cls-1" x="66.39" y="55.48" width="0.62" height="16.21" transform="translate(-20.11 94.49) rotate(-63.22)"/><rect class="cls-1" x="66.67" y="54.93" width="0.62" height="16.21" transform="translate(-19.46 94.44) rotate(-63.22)"/><rect class="cls-1" x="66.96" y="54.37" width="0.62" height="16.21" transform="translate(-18.81 94.38) rotate(-63.22)"/><rect class="cls-1" x="67.33" y="53.97" width="0.27" height="16.21" transform="translate(-18.34 94.34) rotate(-63.22)"/></g><path class="cls-1" d="M65.37,60.58s8.52,5.18,15.42-.63C80.79,60,72.87,54,65.37,60.58Z"/><g class="cls-10"><rect class="cls-1" x="71.15" y="57.45" width="0.51" height="14.1" transform="translate(-14.87 107.09) rotate(-68.36)"/><rect class="cls-1" x="71.33" y="56.95" width="0.54" height="14.1" transform="translate(-14.29 106.96) rotate(-68.36)"/><rect class="cls-1" x="71.53" y="56.45" width="0.54" height="14.1" transform="translate(-13.7 106.83) rotate(-68.36)"/><rect class="cls-1" x="71.73" y="55.94" width="0.54" height="14.1" transform="translate(-13.1 106.7) rotate(-68.36)"/><rect class="cls-1" x="71.93" y="55.44" width="0.54" height="14.1" transform="translate(-12.51 106.56) rotate(-68.36)"/><rect class="cls-1" x="72.13" y="54.93" width="0.54" height="14.1" transform="translate(-11.91 106.43) rotate(-68.36)"/><rect class="cls-1" x="72.33" y="54.43" width="0.54" height="14.1" transform="translate(-11.31 106.3) rotate(-68.36)"/><rect class="cls-1" x="72.53" y="53.92" width="0.54" height="14.1" transform="translate(-10.72 106.17) rotate(-68.36)"/><rect class="cls-1" x="72.73" y="53.42" width="0.54" height="14.1" transform="translate(-10.12 106.03) rotate(-68.36)"/><rect class="cls-1" x="72.93" y="52.91" width="0.54" height="14.1" transform="translate(-9.53 105.9) rotate(-68.36)"/><rect class="cls-1" x="73.13" y="52.41" width="0.54" height="14.1" transform="translate(-8.93 105.77) rotate(-68.36)"/><rect class="cls-1" x="73.33" y="51.9" width="0.54" height="14.1" transform="translate(-8.33 105.64) rotate(-68.36)"/><rect class="cls-1" x="73.53" y="51.4" width="0.54" height="14.1" transform="translate(-7.74 105.5) rotate(-68.36)"/><rect class="cls-1" x="73.73" y="50.89" width="0.54" height="14.1" transform="translate(-7.14 105.37) rotate(-68.36)"/><rect class="cls-1" x="73.93" y="50.39" width="0.54" height="14.1" transform="translate(-6.55 105.24) rotate(-68.36)"/><rect class="cls-1" x="74.13" y="49.88" width="0.54" height="14.1" transform="translate(-5.95 105.11) rotate(-68.36)"/><rect class="cls-1" x="74.33" y="49.38" width="0.54" height="14.1" transform="translate(-5.35 104.97) rotate(-68.36)"/><rect class="cls-1" x="74.53" y="48.87" width="0.54" height="14.1" transform="translate(-4.76 104.84) rotate(-68.36)"/><rect class="cls-1" x="74.73" y="48.37" width="0.54" height="14.1" transform="translate(-4.16 104.71) rotate(-68.36)"/><rect class="cls-1" x="75.03" y="48.01" width="0.24" height="14.1" transform="translate(-3.74 104.61) rotate(-68.36)"/></g><path class="cls-1" d="M73.74,50.28s8.69,4.84,15-1.42C88.79,48.86,80.63,43.23,73.74,50.28Z"/><g class="cls-11"><rect class="cls-1" x="77.3" y="48.71" width="0.12" height="9.89" transform="translate(-14.88 72.51) rotate(-46.3)"/><rect class="cls-1" x="77.26" y="48.33" width="0.92" height="9.89" transform="translate(-14.5 72.65) rotate(-46.3)"/><rect class="cls-1" x="77.9" y="47.67" width="0.92" height="9.89" transform="translate(-13.82 72.9) rotate(-46.3)"/><rect class="cls-1" x="78.53" y="47.01" width="0.92" height="9.89" transform="translate(-13.15 73.16) rotate(-46.3)"/><rect class="cls-1" x="79.16" y="46.35" width="0.92" height="9.89" transform="translate(-12.47 73.41) rotate(-46.3)"/><rect class="cls-1" x="79.8" y="45.68" width="0.92" height="9.89" transform="translate(-11.8 73.66) rotate(-46.3)"/><rect class="cls-1" x="80.43" y="45.02" width="0.92" height="9.89" transform="translate(-11.12 73.92) rotate(-46.3)"/><rect class="cls-1" x="81.06" y="44.36" width="0.92" height="9.89" transform="translate(-10.45 74.17) rotate(-46.3)"/><rect class="cls-1" x="81.7" y="43.69" width="0.92" height="9.89" transform="translate(-9.77 74.42) rotate(-46.3)"/><rect class="cls-1" x="82.33" y="43.03" width="0.92" height="9.89" transform="translate(-9.1 74.68) rotate(-46.3)"/><rect class="cls-1" x="82.97" y="42.37" width="0.92" height="9.89" transform="translate(-8.42 74.93) rotate(-46.3)"/><rect class="cls-1" x="83.6" y="41.7" width="0.92" height="9.89" transform="translate(-7.74 75.18) rotate(-46.3)"/><rect class="cls-1" x="84.23" y="41.04" width="0.92" height="9.89" transform="translate(-7.07 75.44) rotate(-46.3)"/><rect class="cls-1" x="84.96" y="40.6" width="0.29" height="9.89" transform="translate(-6.62 75.6) rotate(-46.3)"/></g><path class="cls-1" d="M75.15,17.05s3.46-4.5.15-9A6.89,6.89,0,0,0,75.15,17.05Z"/><g class="cls-12"><rect class="cls-1" x="72.8" y="12.14" width="0.08" height="6" transform="translate(15.28 62.27) rotate(-51.05)"/><rect class="cls-1" x="72.76" y="11.88" width="0.57" height="6" transform="translate(15.55 62.34) rotate(-51.05)"/><rect class="cls-1" x="73.12" y="11.44" width="0.57" height="6" transform="translate(16.03 62.45) rotate(-51.05)"/><rect class="cls-1" x="73.48" y="11" width="0.57" height="6" transform="translate(16.51 62.57) rotate(-51.05)"/><rect class="cls-1" x="73.84" y="10.55" width="0.57" height="6" transform="translate(16.99 62.68) rotate(-51.05)"/><rect class="cls-1" x="74.2" y="10.11" width="0.57" height="6" transform="translate(17.46 62.79) rotate(-51.05)"/><rect class="cls-1" x="74.55" y="9.67" width="0.57" height="6" transform="translate(17.94 62.91) rotate(-51.05)"/><rect class="cls-1" x="74.91" y="9.22" width="0.57" height="6" transform="translate(18.42 63.02) rotate(-51.05)"/><rect class="cls-1" x="75.27" y="8.78" width="0.57" height="6" transform="translate(18.9 63.14) rotate(-51.05)"/><rect class="cls-1" x="75.63" y="8.33" width="0.57" height="6" transform="translate(19.38 63.25) rotate(-51.05)"/><rect class="cls-1" x="75.99" y="7.89" width="0.57" height="6" transform="translate(19.86 63.36) rotate(-51.05)"/><rect class="cls-1" x="76.35" y="7.45" width="0.57" height="6" transform="translate(20.33 63.48) rotate(-51.05)"/><rect class="cls-1" x="76.7" y="7" width="0.57" height="6" transform="translate(20.81 63.59) rotate(-51.05)"/><rect class="cls-1" x="77.14" y="6.71" width="0.18" height="6" transform="translate(21.13 63.67) rotate(-51.05)"/></g><path class="cls-1" d="M72.71,50S76,41.87,69.3,36.51A10.58,10.58,0,0,0,72.71,50Z"/><g class="cls-13"><rect class="cls-1" x="68.47" y="43.59" width="0.12" height="9.28" transform="translate(-1.57 94.15) rotate(-68.36)"/><rect class="cls-1" x="68.27" y="43.12" width="0.9" height="9.28" transform="translate(-1.01 94.03) rotate(-68.36)"/><rect class="cls-1" x="68.6" y="42.28" width="0.9" height="9.28" transform="translate(-0.02 93.81) rotate(-68.36)"/><rect class="cls-1" x="68.93" y="41.44" width="0.9" height="9.28" transform="translate(0.97 93.59) rotate(-68.36)"/><rect class="cls-1" x="69.27" y="40.6" width="0.9" height="9.28" transform="translate(1.96 93.37) rotate(-68.36)"/><rect class="cls-1" x="69.6" y="39.76" width="0.9" height="9.28" transform="translate(2.95 93.15) rotate(-68.36)"/><rect class="cls-1" x="69.93" y="38.92" width="0.9" height="9.28" transform="translate(3.94 92.92) rotate(-68.36)"/><rect class="cls-1" x="70.26" y="38.09" width="0.9" height="9.28" transform="translate(4.93 92.7) rotate(-68.36)"/><rect class="cls-1" x="70.6" y="37.25" width="0.9" height="9.28" transform="translate(5.92 92.48) rotate(-68.36)"/><rect class="cls-1" x="70.93" y="36.41" width="0.9" height="9.28" transform="translate(6.91 92.26) rotate(-68.36)"/><rect class="cls-1" x="71.26" y="35.57" width="0.9" height="9.28" transform="translate(7.9 92.04) rotate(-68.36)"/><rect class="cls-1" x="71.59" y="34.73" width="0.9" height="9.28" transform="translate(8.89 91.82) rotate(-68.36)"/><rect class="cls-1" x="71.93" y="33.89" width="0.9" height="9.28" transform="translate(9.88 91.6) rotate(-68.36)"/><rect class="cls-1" x="72.45" y="33.34" width="0.29" height="9.28" transform="translate(10.53 91.46) rotate(-68.36)"/></g><path class="cls-1" d="M77.23,29.57s-.6-7.87-8.1-9.75A10,10,0,0,0,77.23,29.57Z"/><g class="cls-14"><rect class="cls-1" x="71.53" y="23.06" width="0.18" height="11.13" transform="translate(18.61 84.64) rotate(-68.36)"/><rect class="cls-1" x="71.49" y="22.74" width="0.51" height="11.13" transform="translate(18.98 84.56) rotate(-68.36)"/><rect class="cls-1" x="71.68" y="22.27" width="0.51" height="11.13" transform="translate(19.54 84.44) rotate(-68.36)"/><rect class="cls-1" x="71.87" y="21.8" width="0.51" height="11.13" transform="translate(20.1 84.31) rotate(-68.36)"/><rect class="cls-1" x="72.05" y="21.32" width="0.51" height="11.13" transform="translate(20.65 84.19) rotate(-68.36)"/><rect class="cls-1" x="72.24" y="20.85" width="0.51" height="11.13" transform="translate(21.21 84.06) rotate(-68.36)"/><rect class="cls-1" x="72.43" y="20.38" width="0.51" height="11.13" transform="translate(21.77 83.94) rotate(-68.36)"/><rect class="cls-1" x="72.62" y="19.91" width="0.51" height="11.13" transform="translate(22.32 83.82) rotate(-68.36)"/><rect class="cls-1" x="72.8" y="19.44" width="0.51" height="11.13" transform="translate(22.88 83.69) rotate(-68.36)"/><rect class="cls-1" x="72.99" y="18.97" width="0.51" height="11.13" transform="translate(23.44 83.57) rotate(-68.36)"/><rect class="cls-1" x="73.18" y="18.49" width="0.51" height="11.13" transform="translate(24 83.44) rotate(-68.36)"/><rect class="cls-1" x="73.36" y="18.02" width="0.51" height="11.13" transform="translate(24.55 83.32) rotate(-68.36)"/><rect class="cls-1" x="73.55" y="17.55" width="0.51" height="11.13" transform="translate(25.11 83.2) rotate(-68.36)"/><rect class="cls-1" x="73.74" y="17.08" width="0.51" height="11.13" transform="translate(25.67 83.07) rotate(-68.36)"/><rect class="cls-1" x="73.93" y="16.6" width="0.51" height="11.13" transform="translate(26.22 82.95) rotate(-68.36)"/><rect class="cls-1" x="74.11" y="16.13" width="0.51" height="11.13" transform="translate(26.78 82.82) rotate(-68.36)"/><rect class="cls-1" x="74.3" y="15.66" width="0.51" height="11.13" transform="translate(27.34 82.7) rotate(-68.36)"/><rect class="cls-1" x="74.63" y="15.39" width="0.07" height="11.13" transform="translate(27.65 82.63) rotate(-68.36)"/></g><path class="cls-1" d="M71.86,11.29s-.76-7-7.4-8.54A9,9,0,0,0,71.86,11.29Z"/><g class="cls-15"><rect class="cls-1" x="65.93" y="5.17" width="0.13" height="10.78" transform="translate(22.43 61.24) rotate(-58.41)"/><rect class="cls-1" x="65.94" y="4.97" width="0.36" height="10.78" transform="translate(22.66 61.25) rotate(-58.41)"/><rect class="cls-1" x="66.13" y="4.66" width="0.36" height="10.78" transform="translate(23.02 61.27) rotate(-58.41)"/><rect class="cls-1" x="66.32" y="4.35" width="0.36" height="10.78" transform="translate(23.37 61.28) rotate(-58.41)"/><rect class="cls-1" x="66.51" y="4.04" width="0.36" height="10.78" transform="translate(23.73 61.3) rotate(-58.41)"/><rect class="cls-1" x="66.7" y="3.73" width="0.36" height="10.78" transform="translate(24.08 61.31) rotate(-58.41)"/><rect class="cls-1" x="66.89" y="3.42" width="0.36" height="10.78" transform="translate(24.44 61.32) rotate(-58.41)"/><rect class="cls-1" x="67.08" y="3.11" width="0.36" height="10.78" transform="translate(24.79 61.34) rotate(-58.41)"/><rect class="cls-1" x="67.27" y="2.8" width="0.36" height="10.78" transform="translate(25.14 61.35) rotate(-58.41)"/><rect class="cls-1" x="67.46" y="2.49" width="0.36" height="10.78" transform="translate(25.5 61.37) rotate(-58.41)"/><rect class="cls-1" x="67.65" y="2.18" width="0.36" height="10.78" transform="translate(25.85 61.38) rotate(-58.41)"/><rect class="cls-1" x="67.84" y="1.87" width="0.36" height="10.78" transform="translate(26.21 61.4) rotate(-58.41)"/><rect class="cls-1" x="68.03" y="1.56" width="0.36" height="10.78" transform="translate(26.56 61.41) rotate(-58.41)"/><rect class="cls-1" x="68.22" y="1.25" width="0.36" height="10.78" transform="translate(26.92 61.43) rotate(-58.41)"/><rect class="cls-1" x="68.41" y="0.94" width="0.36" height="10.78" transform="translate(27.27 61.44) rotate(-58.41)"/><rect class="cls-1" x="68.6" y="0.63" width="0.36" height="10.78" transform="translate(27.62 61.46) rotate(-58.41)"/><rect class="cls-1" x="68.79" y="0.32" width="0.36" height="10.78" transform="translate(27.98 61.47) rotate(-58.41)"/><rect class="cls-1" x="68.98" y="0.01" width="0.36" height="10.78" transform="translate(28.33 61.49) rotate(-58.41)"/><rect class="cls-1" x="69.17" y="-0.3" width="0.36" height="10.78" transform="translate(28.69 61.5) rotate(-58.41)"/><rect class="cls-1" x="69.36" y="-0.61" width="0.36" height="10.78" transform="translate(29.04 61.52) rotate(-58.41)"/><rect class="cls-1" x="69.55" y="-0.92" width="0.36" height="10.78" transform="translate(29.4 61.53) rotate(-58.41)"/><rect class="cls-1" x="69.74" y="-1.22" width="0.36" height="10.78" transform="translate(29.75 61.55) rotate(-58.41)"/><rect class="cls-1" x="69.94" y="-1.52" width="0.33" height="10.78" transform="translate(30.09 61.56) rotate(-58.41)"/></g></svg>