<?xml version="1.0" encoding="utf-8"?>
<!-- Generator: Adobe Illustrator 20.0.0, SVG Export Plug-In . SVG Version: 6.00 Build 0)  -->
<svg version="1.1" id="Layer_1" xmlns="http://www.w3.org/2000/svg" xmlns:xlink="http://www.w3.org/1999/xlink" x="0px" y="0px"
	 viewBox="0 0 67.2 57.3" style="enable-background:new 0 0 67.2 57.3;" xml:space="preserve">
<style type="text/css">
	.st0{fill:#FF9A00;stroke:#20418C;stroke-width:1.5;stroke-linecap:round;stroke-linejoin:round;stroke-miterlimit:10;}
	.st1{fill:#EFE0C9;}
	.st2{fill:none;stroke:#20418C;stroke-width:1.5;stroke-linecap:round;stroke-linejoin:round;stroke-miterlimit:10;}
	.st3{fill:none;stroke:#000000;stroke-width:2;stroke-linecap:round;stroke-linejoin:round;stroke-miterlimit:10;}
</style>
<polyline class="st0" points="7.1,26 7.1,15.5 17.8,15.5 "/>
<rect x="29.5" y="42.7" class="st1" width="8" height="14.5"/>
<polyline class="st2" points="48.9,17 33,1.2 1,32.9 9,32.9 9,56.6 29,56.6 29,40.8 37,40.8 37,56.6 57,56.6 57,46.6 "/>
<path class="st2" d="M66,31.2c0.2,6.6-5.3,12.1-12.2,12.3s-12.7-5-12.9-11.6c-0.2-6.6,5.3-12.1,12.2-12.3C60,19.4,65.8,24.6,66,31.2
	z"/>
<polyline class="st2" points="46.6,31.8 50.8,38.2 60.8,27.2 "/>
</svg>
