<?xml version="1.0" encoding="utf-8"?>
<!-- Generator: Adobe Illustrator 20.0.0, SVG Export Plug-In . SVG Version: 6.00 Build 0)  -->
<svg version="1.1" id="Layer_1" xmlns="http://www.w3.org/2000/svg" xmlns:xlink="http://www.w3.org/1999/xlink" x="0px" y="0px"
	 viewBox="0 0 48.9 38" style="enable-background:new 0 0 48.9 38;" xml:space="preserve">
<style type="text/css">
	.st0{fill:#ffffff;}
	.st1{fill:none;stroke:#ffffff;stroke-width:0.1;stroke-miterlimit:10;}
</style>
<g>
	<circle class="st0" cx="11.6" cy="15.1" r="1.4"/>
	<circle class="st0" cx="29.7" cy="14.4" r="2"/>
	<circle class="st0" cx="47.7" cy="22.6" r="1.2"/>
	<circle class="st0" cx="37.2" cy="35.8" r="1.6"/>
	<circle class="st0" cx="1.9" cy="24.5" r="1.9"/>
	<circle class="st0" cx="15" cy="36.9" r="1.1"/>
	<circle class="st0" cx="24.5" cy="1.9" r="1.9"/>
	<circle class="st0" cx="16.9" cy="27" r="1.3"/>
	<line class="st1" x1="3.3" y1="23.2" x2="10.6" y2="16.1"/>
	<line class="st1" x1="12.6" y1="14" x2="23.3" y2="3.4"/>
	<line class="st1" x1="47.1" y1="21.5" x2="25.7" y2="3.4"/>
	<line class="st1" x1="46.6" y1="23.2" x2="15.9" y2="36.4"/>
	<line class="st1" x1="47.3" y1="23.8" x2="38.5" y2="34.9"/>
	<line class="st1" x1="35.8" y1="35.3" x2="17.9" y2="27.7"/>
	<line class="st1" x1="24.5" y1="3.8" x2="17.2" y2="25.8"/>
	<line class="st1" x1="28.9" y1="16.2" x2="15.7" y2="36.3"/>
	<line class="st1" x1="25.1" y1="3.7" x2="28.7" y2="12.7"/>
	<line class="st1" x1="30.7" y1="16" x2="36.7" y2="34.4"/>
	<line class="st1" x1="15.6" y1="26.9" x2="3.7" y2="25.3"/>
	<line class="st1" x1="13" y1="15.3" x2="27.7" y2="14.4"/>
	<line class="st1" x1="31.5" y1="15.1" x2="46.6" y2="22.2"/>
</g>
</svg>
